<mxfile host="app.diagrams.net" modified="2022-05-03T04:09:08.360Z" agent="5.0 (Windows NT 10.0; Win64; x64) AppleWebKit/537.36 (KHTML, like Gecko) Chrome/101.0.4951.41 Safari/537.36 Edg/101.0.1210.32" etag="Neo77nQNJHE-YBHCrH63" version="17.4.6" type="github">
  <diagram id="fLfctS0Doj3L_qTz2Ks7" name="Page-1">
    <mxGraphModel dx="920" dy="558" grid="1" gridSize="10" guides="1" tooltips="1" connect="1" arrows="1" fold="1" page="1" pageScale="1" pageWidth="850" pageHeight="1100" math="0" shadow="0">
      <root>
        <mxCell id="0" />
        <mxCell id="1" parent="0" />
        <mxCell id="vcUPHgAugXP2XcLCQMwa-22" style="edgeStyle=orthogonalEdgeStyle;rounded=0;orthogonalLoop=1;jettySize=auto;html=1;fontSize=12;" edge="1" parent="1" source="vcUPHgAugXP2XcLCQMwa-1" target="vcUPHgAugXP2XcLCQMwa-3">
          <mxGeometry relative="1" as="geometry" />
        </mxCell>
        <mxCell id="vcUPHgAugXP2XcLCQMwa-23" style="edgeStyle=orthogonalEdgeStyle;rounded=0;orthogonalLoop=1;jettySize=auto;html=1;fontSize=12;" edge="1" parent="1" source="vcUPHgAugXP2XcLCQMwa-1" target="vcUPHgAugXP2XcLCQMwa-4">
          <mxGeometry relative="1" as="geometry" />
        </mxCell>
        <mxCell id="vcUPHgAugXP2XcLCQMwa-24" style="edgeStyle=orthogonalEdgeStyle;rounded=0;orthogonalLoop=1;jettySize=auto;html=1;fontSize=12;" edge="1" parent="1" source="vcUPHgAugXP2XcLCQMwa-1" target="vcUPHgAugXP2XcLCQMwa-5">
          <mxGeometry relative="1" as="geometry" />
        </mxCell>
        <mxCell id="vcUPHgAugXP2XcLCQMwa-25" style="edgeStyle=orthogonalEdgeStyle;rounded=0;orthogonalLoop=1;jettySize=auto;html=1;fontSize=12;" edge="1" parent="1" source="vcUPHgAugXP2XcLCQMwa-1" target="vcUPHgAugXP2XcLCQMwa-6">
          <mxGeometry relative="1" as="geometry">
            <Array as="points">
              <mxPoint x="125" y="250" />
              <mxPoint x="255" y="250" />
            </Array>
          </mxGeometry>
        </mxCell>
        <mxCell id="vcUPHgAugXP2XcLCQMwa-1" value="kube-scheduler" style="rounded=0;whiteSpace=wrap;html=1;" vertex="1" parent="1">
          <mxGeometry x="75" y="200" width="100" height="30" as="geometry" />
        </mxCell>
        <mxCell id="vcUPHgAugXP2XcLCQMwa-3" value="node1" style="rounded=0;whiteSpace=wrap;html=1;" vertex="1" parent="1">
          <mxGeometry x="30" y="270" width="50" height="30" as="geometry" />
        </mxCell>
        <mxCell id="vcUPHgAugXP2XcLCQMwa-4" value="node2" style="rounded=0;whiteSpace=wrap;html=1;" vertex="1" parent="1">
          <mxGeometry x="100" y="270" width="50" height="30" as="geometry" />
        </mxCell>
        <mxCell id="vcUPHgAugXP2XcLCQMwa-5" value="node3" style="rounded=0;whiteSpace=wrap;html=1;" vertex="1" parent="1">
          <mxGeometry x="170" y="270" width="50" height="30" as="geometry" />
        </mxCell>
        <mxCell id="vcUPHgAugXP2XcLCQMwa-6" value="&lt;b&gt;&lt;font style=&quot;font-size: 14px&quot;&gt;. . .&lt;/font&gt;&lt;/b&gt;" style="text;html=1;align=center;verticalAlign=middle;resizable=0;points=[];autosize=1;strokeColor=none;fillColor=none;" vertex="1" parent="1">
          <mxGeometry x="240" y="280" width="30" height="20" as="geometry" />
        </mxCell>
        <mxCell id="vcUPHgAugXP2XcLCQMwa-7" value="&lt;font style=&quot;font-size: 12px&quot;&gt;pod3&lt;/font&gt;" style="rounded=0;whiteSpace=wrap;html=1;fontSize=14;" vertex="1" parent="1">
          <mxGeometry x="40" y="130" width="30" height="30" as="geometry" />
        </mxCell>
        <mxCell id="vcUPHgAugXP2XcLCQMwa-9" value="&lt;font style=&quot;font-size: 12px&quot;&gt;pod2&lt;/font&gt;" style="rounded=0;whiteSpace=wrap;html=1;fontSize=14;" vertex="1" parent="1">
          <mxGeometry x="70" y="130" width="30" height="30" as="geometry" />
        </mxCell>
        <mxCell id="vcUPHgAugXP2XcLCQMwa-10" value="&lt;font style=&quot;font-size: 12px&quot;&gt;pod1&lt;/font&gt;" style="rounded=0;whiteSpace=wrap;html=1;fontSize=14;" vertex="1" parent="1">
          <mxGeometry x="100" y="130" width="30" height="30" as="geometry" />
        </mxCell>
        <mxCell id="vcUPHgAugXP2XcLCQMwa-11" value="&lt;span style=&quot;font-size: 12px&quot;&gt;...&lt;/span&gt;" style="rounded=0;whiteSpace=wrap;html=1;fontSize=14;" vertex="1" parent="1">
          <mxGeometry x="10" y="130" width="30" height="30" as="geometry" />
        </mxCell>
        <mxCell id="vcUPHgAugXP2XcLCQMwa-12" value="pod schedule queue" style="text;html=1;align=center;verticalAlign=middle;resizable=0;points=[];autosize=1;strokeColor=none;fillColor=none;fontSize=12;" vertex="1" parent="1">
          <mxGeometry x="10" y="110" width="120" height="20" as="geometry" />
        </mxCell>
        <mxCell id="vcUPHgAugXP2XcLCQMwa-13" value="" style="curved=1;endArrow=classic;html=1;rounded=0;fontSize=12;exitX=1;exitY=0.5;exitDx=0;exitDy=0;entryX=0.5;entryY=0;entryDx=0;entryDy=0;" edge="1" parent="1" source="vcUPHgAugXP2XcLCQMwa-10" target="vcUPHgAugXP2XcLCQMwa-1">
          <mxGeometry width="50" height="50" relative="1" as="geometry">
            <mxPoint x="180" y="230" as="sourcePoint" />
            <mxPoint x="230" y="180" as="targetPoint" />
            <Array as="points">
              <mxPoint x="150" y="160" />
              <mxPoint x="150" y="180" />
            </Array>
          </mxGeometry>
        </mxCell>
        <mxCell id="vcUPHgAugXP2XcLCQMwa-14" value="schedule" style="edgeLabel;html=1;align=center;verticalAlign=middle;resizable=0;points=[];fontSize=12;" vertex="1" connectable="0" parent="vcUPHgAugXP2XcLCQMwa-13">
          <mxGeometry x="0.1746" y="-1" relative="1" as="geometry">
            <mxPoint x="4" as="offset" />
          </mxGeometry>
        </mxCell>
        <mxCell id="vcUPHgAugXP2XcLCQMwa-26" value="&lt;font style=&quot;font-size: 12px&quot;&gt;pod3&lt;/font&gt;" style="rounded=0;whiteSpace=wrap;html=1;fontSize=14;" vertex="1" parent="1">
          <mxGeometry x="410" y="115" width="30" height="30" as="geometry" />
        </mxCell>
        <mxCell id="vcUPHgAugXP2XcLCQMwa-27" value="&lt;font style=&quot;font-size: 12px&quot;&gt;pod2&lt;/font&gt;" style="rounded=0;whiteSpace=wrap;html=1;fontSize=14;" vertex="1" parent="1">
          <mxGeometry x="440" y="115" width="30" height="30" as="geometry" />
        </mxCell>
        <mxCell id="vcUPHgAugXP2XcLCQMwa-28" value="&lt;font style=&quot;font-size: 12px&quot;&gt;pod1&lt;/font&gt;" style="rounded=0;whiteSpace=wrap;html=1;fontSize=14;" vertex="1" parent="1">
          <mxGeometry x="470" y="115" width="30" height="30" as="geometry" />
        </mxCell>
        <mxCell id="vcUPHgAugXP2XcLCQMwa-29" value="&lt;span style=&quot;font-size: 12px&quot;&gt;...&lt;/span&gt;" style="rounded=0;whiteSpace=wrap;html=1;fontSize=14;" vertex="1" parent="1">
          <mxGeometry x="380" y="115" width="30" height="30" as="geometry" />
        </mxCell>
        <mxCell id="vcUPHgAugXP2XcLCQMwa-30" value="pod schedule queue" style="text;html=1;align=center;verticalAlign=middle;resizable=0;points=[];autosize=1;strokeColor=none;fillColor=none;fontSize=12;" vertex="1" parent="1">
          <mxGeometry x="380" y="95" width="120" height="20" as="geometry" />
        </mxCell>
        <mxCell id="vcUPHgAugXP2XcLCQMwa-46" style="edgeStyle=orthogonalEdgeStyle;rounded=0;orthogonalLoop=1;jettySize=auto;html=1;fontSize=12;" edge="1" parent="1" target="vcUPHgAugXP2XcLCQMwa-42">
          <mxGeometry relative="1" as="geometry">
            <mxPoint x="440" y="250" as="sourcePoint" />
          </mxGeometry>
        </mxCell>
        <mxCell id="vcUPHgAugXP2XcLCQMwa-49" style="edgeStyle=orthogonalEdgeStyle;rounded=0;orthogonalLoop=1;jettySize=auto;html=1;fontSize=12;entryX=0.5;entryY=0;entryDx=0;entryDy=0;" edge="1" parent="1" source="vcUPHgAugXP2XcLCQMwa-31" target="vcUPHgAugXP2XcLCQMwa-43">
          <mxGeometry relative="1" as="geometry">
            <mxPoint x="440" y="250" as="targetPoint" />
            <Array as="points">
              <mxPoint x="380" y="230" />
              <mxPoint x="440" y="230" />
            </Array>
          </mxGeometry>
        </mxCell>
        <mxCell id="vcUPHgAugXP2XcLCQMwa-31" value="kube-scheduler1" style="rounded=0;whiteSpace=wrap;html=1;" vertex="1" parent="1">
          <mxGeometry x="330" y="190" width="100" height="30" as="geometry" />
        </mxCell>
        <mxCell id="vcUPHgAugXP2XcLCQMwa-50" style="edgeStyle=orthogonalEdgeStyle;rounded=0;orthogonalLoop=1;jettySize=auto;html=1;fontSize=12;" edge="1" parent="1" source="vcUPHgAugXP2XcLCQMwa-32">
          <mxGeometry relative="1" as="geometry">
            <mxPoint x="440" y="270" as="targetPoint" />
            <Array as="points">
              <mxPoint x="510" y="230" />
              <mxPoint x="440" y="230" />
            </Array>
          </mxGeometry>
        </mxCell>
        <mxCell id="vcUPHgAugXP2XcLCQMwa-32" value="kube-scheduler2" style="rounded=0;whiteSpace=wrap;html=1;" vertex="1" parent="1">
          <mxGeometry x="460" y="190" width="100" height="30" as="geometry" />
        </mxCell>
        <mxCell id="vcUPHgAugXP2XcLCQMwa-33" value="&lt;b&gt;&lt;font style=&quot;font-size: 14px&quot;&gt;. . .&lt;/font&gt;&lt;/b&gt;" style="text;html=1;align=center;verticalAlign=middle;resizable=0;points=[];autosize=1;strokeColor=none;fillColor=none;" vertex="1" parent="1">
          <mxGeometry x="580" y="195" width="30" height="20" as="geometry" />
        </mxCell>
        <mxCell id="vcUPHgAugXP2XcLCQMwa-35" value="" style="curved=1;endArrow=classic;html=1;rounded=0;fontSize=12;entryX=0.5;entryY=0;entryDx=0;entryDy=0;exitX=0.5;exitY=1;exitDx=0;exitDy=0;" edge="1" parent="1" source="vcUPHgAugXP2XcLCQMwa-27" target="vcUPHgAugXP2XcLCQMwa-31">
          <mxGeometry width="50" height="50" relative="1" as="geometry">
            <mxPoint x="400" y="250" as="sourcePoint" />
            <mxPoint x="450" y="200" as="targetPoint" />
            <Array as="points">
              <mxPoint x="430" y="170" />
              <mxPoint x="390" y="170" />
            </Array>
          </mxGeometry>
        </mxCell>
        <mxCell id="vcUPHgAugXP2XcLCQMwa-40" value="schedule" style="edgeLabel;html=1;align=center;verticalAlign=middle;resizable=0;points=[];fontSize=12;" vertex="1" connectable="0" parent="vcUPHgAugXP2XcLCQMwa-35">
          <mxGeometry x="-0.078" y="-2" relative="1" as="geometry">
            <mxPoint x="-1" as="offset" />
          </mxGeometry>
        </mxCell>
        <mxCell id="vcUPHgAugXP2XcLCQMwa-36" value="" style="curved=1;endArrow=classic;html=1;rounded=0;fontSize=12;exitX=0.5;exitY=1;exitDx=0;exitDy=0;entryX=0.5;entryY=0;entryDx=0;entryDy=0;" edge="1" parent="1" source="vcUPHgAugXP2XcLCQMwa-28" target="vcUPHgAugXP2XcLCQMwa-32">
          <mxGeometry width="50" height="50" relative="1" as="geometry">
            <mxPoint x="400" y="250" as="sourcePoint" />
            <mxPoint x="450" y="200" as="targetPoint" />
            <Array as="points">
              <mxPoint x="500" y="160" />
              <mxPoint x="500" y="180" />
            </Array>
          </mxGeometry>
        </mxCell>
        <mxCell id="vcUPHgAugXP2XcLCQMwa-41" value="schedule" style="edgeLabel;html=1;align=center;verticalAlign=middle;resizable=0;points=[];fontSize=12;" vertex="1" connectable="0" parent="vcUPHgAugXP2XcLCQMwa-36">
          <mxGeometry x="-0.0728" y="-2" relative="1" as="geometry">
            <mxPoint as="offset" />
          </mxGeometry>
        </mxCell>
        <mxCell id="vcUPHgAugXP2XcLCQMwa-42" value="node1" style="rounded=0;whiteSpace=wrap;html=1;" vertex="1" parent="1">
          <mxGeometry x="345" y="270" width="50" height="30" as="geometry" />
        </mxCell>
        <mxCell id="vcUPHgAugXP2XcLCQMwa-43" value="node2" style="rounded=0;whiteSpace=wrap;html=1;" vertex="1" parent="1">
          <mxGeometry x="415" y="270" width="50" height="30" as="geometry" />
        </mxCell>
        <mxCell id="vcUPHgAugXP2XcLCQMwa-44" value="node3" style="rounded=0;whiteSpace=wrap;html=1;" vertex="1" parent="1">
          <mxGeometry x="485" y="270" width="50" height="30" as="geometry" />
        </mxCell>
        <mxCell id="vcUPHgAugXP2XcLCQMwa-45" value="&lt;b&gt;&lt;font style=&quot;font-size: 14px&quot;&gt;. . .&lt;/font&gt;&lt;/b&gt;" style="text;html=1;align=center;verticalAlign=middle;resizable=0;points=[];autosize=1;strokeColor=none;fillColor=none;" vertex="1" parent="1">
          <mxGeometry x="560" y="275" width="30" height="20" as="geometry" />
        </mxCell>
        <mxCell id="vcUPHgAugXP2XcLCQMwa-47" value="" style="endArrow=classic;html=1;rounded=0;fontSize=12;" edge="1" parent="1" target="vcUPHgAugXP2XcLCQMwa-43">
          <mxGeometry width="50" height="50" relative="1" as="geometry">
            <mxPoint x="440" y="250" as="sourcePoint" />
            <mxPoint x="380" y="140" as="targetPoint" />
          </mxGeometry>
        </mxCell>
        <mxCell id="vcUPHgAugXP2XcLCQMwa-48" value="" style="endArrow=classic;html=1;rounded=0;fontSize=12;entryX=0.5;entryY=0;entryDx=0;entryDy=0;" edge="1" parent="1" target="vcUPHgAugXP2XcLCQMwa-44">
          <mxGeometry width="50" height="50" relative="1" as="geometry">
            <mxPoint x="440" y="250" as="sourcePoint" />
            <mxPoint x="430" y="200" as="targetPoint" />
            <Array as="points">
              <mxPoint x="510" y="250" />
            </Array>
          </mxGeometry>
        </mxCell>
        <mxCell id="vcUPHgAugXP2XcLCQMwa-51" value="" style="endArrow=classic;html=1;rounded=0;fontSize=12;" edge="1" parent="1" target="vcUPHgAugXP2XcLCQMwa-45">
          <mxGeometry width="50" height="50" relative="1" as="geometry">
            <mxPoint x="510" y="250" as="sourcePoint" />
            <mxPoint x="320" y="180" as="targetPoint" />
            <Array as="points">
              <mxPoint x="570" y="250" />
            </Array>
          </mxGeometry>
        </mxCell>
      </root>
    </mxGraphModel>
  </diagram>
</mxfile>
